<?xml version="1.0" encoding="UTF-8"?>
<svg id="Layer_1" data-name="Layer 1" xmlns="http://www.w3.org/2000/svg" viewBox="0 0 655.64 312.4">
  <defs>
    <style>
      .cls-1 {
        fill: rgba(229, 224, 255, 0.5);
        stroke-width: 0px;
      }
    </style>
  </defs>
  <path class="cls-1" d="M603.93,312.4c.1-.84.13-1.41.24-1.96,1.56-7.4,3.1-14.8,4.73-22.19.28-1.26.11-2.22-.61-3.27-4.24-6.19-8.43-12.42-12.63-18.64-.36-.53-.68-1.07-1.25-1.99,20.67,4.32,40.93,8.56,61.15,12.79.04.17.07.23.07.3,0,.06-.01.15-.05.17-16.76,11.31-33.53,22.62-50.3,33.93-.36.25-.74.47-1.36.85Z"/>
  <path class="cls-1" d="M256.79,95.91c2.23.49,4.18.91,6.27,1.36-.39,2.55-.76,4.97-1.18,7.7,4.53-.26,8.84-.51,13.34-.77.16,2.19.3,4.24.46,6.52-4.84.61-9.65.52-14.58,1.01-.89,8.32-.91,16.56-.17,25.08-2.19.16-4.3.31-6.56.47-.74-8.47-.62-16.77.1-25.2h-19.48c-.1-2.12-.06-4.22,0-6.51,6.79-.09,13.47-.18,20.18-.28.56-3.2,1.06-6.14,1.63-9.4Z"/>
  <path class="cls-1" d="M582.03,287.77c.32,2.18.63,4.22.97,6.53-13.49,2.12-26.9,3.76-40.56,5.13-.21-2.2-.4-4.24-.59-6.31,13.41-1.78,26.69-3.55,40.18-5.34Z"/>
  <path class="cls-1" d="M343.5,269.35c-7.09-3.37-28.37-19.12-33.11-24.52,1.33-1.52,2.69-3.06,4.22-4.8,10.07,8.82,20.68,16.76,32.17,23.72-1.13,1.92-2.17,3.7-3.28,5.6Z"/>
  <path class="cls-1" d="M371.83,9.12c-12.87-3.54-25.5-3.06-38.24.19-.59-2.15-1.14-4.14-1.68-6.13,8.88-3.56,29.27-4.77,41.81-.19-.29,1.01-.57,2.05-.89,3.08-.3.99-.65,1.97-1.01,3.06Z"/>
  <path class="cls-1" d="M421.21,292.32c-.42,2.29-.78,4.26-1.19,6.48-13.69-2.15-26.63-6.37-39.61-11.13.83-2.2,1.57-4.19,2.37-6.32,12.52,4.78,25.08,8.83,38.42,10.96Z"/>
  <path class="cls-1" d="M39.14,62.67c-.86,1.83-1.71,3.65-2.65,5.66-12.4-5.64-24.45-11.73-36.49-18.4,1.13-2,2.2-3.89,3.21-5.67,12.01,6.15,23.87,12.23,35.93,18.41Z"/>
  <path class="cls-1" d="M354.21,90.44c.74,2.14,1.41,4.1,2.07,6.02-4.11,2.58-30.37,8.73-39.91,9.34-.38-2.04-.76-4.11-1.17-6.34,13.28-2.12,26.29-4.62,39.01-9.02Z"/>
  <path class="cls-1" d="M154.52,98.3c13.45,1.84,26.65,3.65,40.02,5.48-.19,2-.38,4.04-.58,6.25-13.69-1.15-27.05-3.11-40.55-5.47.39-2.2.75-4.23,1.11-6.26Z"/>
  <path class="cls-1" d="M391.46,73.88c-1.85-1.5-3.46-2.81-5.11-4.15,7.87-10.46,12.69-21.7,10.17-35.3,2.13-.39,4.19-.76,6.52-1.19,2.6,15.49-2.34,28.54-11.59,40.64Z"/>
  <path class="cls-1" d="M74.46,83.6c.73-2.07,1.4-3.95,2.07-5.86,12.88,3.98,25.65,7.92,38.66,11.94-.55,1.94-1.13,3.96-1.73,6.08-13.25-3.56-26.17-7.46-39-12.16Z"/>
  <path class="cls-1" d="M288.22,210.29c-1.78,1.32-3.44,2.56-5.32,3.95-8.09-11.36-14.59-23.43-19.57-36.49,2.08-.81,4-1.55,6.11-2.37,4.84,12.5,11.02,24.06,18.79,34.9Z"/>
  <path class="cls-1" d="M276.24,59.91c-1.96-1.01-3.73-1.92-5.72-2.94,6.56-12.51,14.88-23.48,25.29-33.13,1.47,1.66,2.84,3.2,4.35,4.91-9.75,9.03-17.52,19.5-23.93,31.16Z"/>
  <path class="cls-1" d="M501.47,296.09c.1,2.21.19,4.2.29,6.43-13.72.68-27.25.8-41.01.4.14-2.27.26-4.37.41-6.72,13.48.74,26.81.39,40.31-.11Z"/>
</svg>