<?xml version="1.0" encoding="UTF-8"?>
<svg id="Layer_1" data-name="Layer 1" xmlns="http://www.w3.org/2000/svg" viewBox="0 0 634.08 357.08">
  <defs>
    <style>
      .cls-1 {
        fill: rgba(229, 224, 255, 0.5);
        stroke-width: 0px;
      }
    </style>
  </defs>
  <path class="cls-1" d="M575.73,311.47c19.67,4.02,38.98,7.96,58.28,11.9.03.13.05.26.08.39-16.27,11.06-32.53,22.12-49,33.32,0-.59-.06-.93,0-1.24,1.5-7.28,2.98-14.56,4.54-21.82.24-1.12.08-1.99-.58-2.94-4.09-5.91-8.13-11.85-12.19-17.79-.33-.49-.63-1-1.14-1.82Z"/>
  <path class="cls-1" d="M217.18,29.96c.56,1.08,1.12,2.17,1.76,3.42-10.92,6.26-20.59,14.05-29.29,23.36-1.61-1.54-3.05-2.93-4.66-4.47,8.98-9.63,19.05-17.65,30.63-24.2-2.91-2.08-5.57-3.98-8.37-5.98,1.08-1.68,2.14-3.33,3.32-5.16,11.39,7.25,20.92,16.27,28.89,27.2-.69.49-1.24.89-1.78,1.27-1.05.74-2.11,1.48-3.28,2.29-4.97-6.77-10.54-12.79-16.93-18.03-.1.09-.19.19-.29.28Z"/>
  <path class="cls-1" d="M424.28,282.18c-.84.96-1.53,1.75-2.22,2.54-.57.65-1.15,1.29-1.91,2.14-9.92-8.56-18.76-18.01-27.03-28.31,1.7-1.32,3.29-2.56,5.06-3.94,7.94,9.93,16.51,19.09,26.1,27.57Z"/>
  <path class="cls-1" d="M135.02,6.71c-.2-2.11-.37-3.99-.57-6.13,13.24-1.15,26.2-.68,39.26,2.03-.23,1.16-.41,2.18-.62,3.19-.2.95-.44,1.9-.69,2.98-12.37-2.46-24.72-2.8-37.38-2.07Z"/>
  <path class="cls-1" d="M327.13,38.83c9.63,9.76,15.78,21.35,19.5,34.44-.5.18-.83.33-1.17.43-1.54.44-3.07.87-4.8,1.35-3.68-11.97-9.08-22.85-18.08-31.81,1.19-1.2,2.27-2.3,3.37-3.38.34-.34.73-.64,1.17-1.03Z"/>
  <path class="cls-1" d="M28.56,47.82c1.37,1.7,2.6,3.23,3.94,4.89-9.9,8.07-19.2,16.61-28.22,25.62-1.43-1.58-2.78-3.07-4.28-4.72,8.85-8.9,18.4-17.49,28.56-25.79Z"/>
  <path class="cls-1" d="M254.31,21.34c-.34-2.25-.62-4.13-.93-6.22,13.45-1.99,26.47-.81,39.47,3.3-.61,2-1.18,3.87-1.83,6-11.98-3.76-24.15-4.78-36.7-3.08Z"/>
  <path class="cls-1" d="M451.94,309.56c1.08-1.85,2.08-3.54,3.18-5.43,11.01,6.3,22.35,11.63,34.42,15.82-.36,1.09-.67,2.07-1,3.05-.31.93-.65,1.85-1.03,2.95-12.45-4.32-24.17-9.84-35.58-16.38Z"/>
  <path class="cls-1" d="M346.62,112.46c2.15-.14,4.04-.26,6.15-.4.82,12.8,1.62,25.45,2.45,38.36-1.89.24-3.81.49-5.98.77-1.54-12.9-1.88-25.7-2.62-38.73Z"/>
  <path class="cls-1" d="M564.37,337.82c-13.04.25-25.91-.35-38.89-2.4.31-2.08.6-4.01.92-6.15,12.63,1.75,25.18,2.74,37.97,2.27v6.28Z"/>
  <path class="cls-1" d="M96.11,8.92c.65,2,1.24,3.81,1.89,5.81-11.96,4.28-23.33,9.67-34.27,16.23-1.08-1.84-2.08-3.53-3.2-5.43,11.32-6.8,23.01-12.42,35.58-16.62Z"/>
  <path class="cls-1" d="M225.32,146.34c.83,1.28,1.6,2.46,2.36,3.66.29.46.55.94.81,1.39-8.27,7.88-29.41,10.33-39.45,4.51.37-.92.75-1.87,1.15-2.82.38-.9.77-1.8,1.21-2.84,12.04,5.01,23.2,2.88,33.93-3.89Z"/>
  <path class="cls-1" d="M357.03,189.49c2.08-.65,3.95-1.23,5.79-1.8,2.26,6.05,4.3,12.03,6.71,17.85,2.4,5.82,5.17,11.49,7.85,17.38-1.74.87-3.49,1.74-5.42,2.71-6.03-11.6-10.94-23.52-14.91-36.13Z"/>
  <path class="cls-1" d="M169.82,88.04c-4.07,11.9-5.22,23.68-1.12,35.73-1.07.4-2.04.77-3.02,1.11-.92.32-1.86.61-2.96.96-4.43-13.54-3.27-26.71,1.28-40.02,1.97.75,3.79,1.45,5.82,2.22Z"/>
  <path class="cls-1" d="M249.33,81.52c2.14-.45,4.06-.85,6.18-1.29,2.49,13.57,2.37,26.75-2.29,39.86-2.06-.77-3.95-1.47-5.9-2.21,4.3-11.95,4.51-23.99,2.01-36.37Z"/>
</svg>